<svg fill="none" height="48" viewBox="0 0 48 48" width="48" xmlns="http://www.w3.org/2000/svg"><path d="m0 0h48v48h-48z" fill="#fff" fill-opacity=".01"/><path d="m48 0h-48v48h48z" fill="#fff" fill-opacity=".01"/><path d="m38 8h-28c-1.10457 0-2 .89543-2 2v28c0 1.1046.89543 2 2 2h28c1.1046 0 2-.8954 2-2v-28c0-1.10457-.8954-2-2-2z" fill="#2f88ff" stroke="#000" stroke-linejoin="round" stroke-width="4"/><path d="m30 18h-12v12h12z" fill="#43ccf8" stroke="#fff" stroke-linejoin="round" stroke-width="4"/><path clip-rule="evenodd" d="m14.9092 2v6z" fill="#2f88ff" fill-rule="evenodd"/><path d="m14.9092 2v6" stroke="#000" stroke-linecap="round" stroke-linejoin="round" stroke-width="4"/><path clip-rule="evenodd" d="m14.9092 40v6z" fill="#2f88ff" fill-rule="evenodd"/><path d="m14.9092 40v6" stroke="#000" stroke-linecap="round" stroke-linejoin="round" stroke-width="4"/><path clip-rule="evenodd" d="m24 2v6z" fill="#2f88ff" fill-rule="evenodd"/><path d="m24 2v6" stroke="#000" stroke-linecap="round" stroke-linejoin="round" stroke-width="4"/><path clip-rule="evenodd" d="m24 40v6z" fill="#2f88ff" fill-rule="evenodd"/><path d="m24 40v6" stroke="#000" stroke-linecap="round" stroke-linejoin="round" stroke-width="4"/><path clip-rule="evenodd" d="m33.0908 2v6z" fill="#2f88ff" fill-rule="evenodd"/><path d="m33.0908 2v6" stroke="#000" stroke-linecap="round" stroke-linejoin="round" stroke-width="4"/><path clip-rule="evenodd" d="m33.0908 40v6z" fill="#2f88ff" fill-rule="evenodd"/><path d="m33.0908 40v6" stroke="#000" stroke-linecap="round" stroke-linejoin="round" stroke-width="4"/><path clip-rule="evenodd" d="m2 14.9091h6z" fill="#2f88ff" fill-rule="evenodd"/><path d="m2 14.9091h6" stroke="#000" stroke-linecap="round" stroke-linejoin="round" stroke-width="4"/><path clip-rule="evenodd" d="m40 14.9091h6z" fill="#2f88ff" fill-rule="evenodd"/><path d="m40 14.9091h6" stroke="#000" stroke-linecap="round" stroke-linejoin="round" stroke-width="4"/><path clip-rule="evenodd" d="m2 24h6z" fill="#2f88ff" fill-rule="evenodd"/><path d="m2 24h6" stroke="#000" stroke-linecap="round" stroke-linejoin="round" stroke-width="4"/><path clip-rule="evenodd" d="m40 24h6z" fill="#2f88ff" fill-rule="evenodd"/><path d="m40 24h6" stroke="#000" stroke-linecap="round" stroke-linejoin="round" stroke-width="4"/><path clip-rule="evenodd" d="m2 33.0909h6z" fill="#2f88ff" fill-rule="evenodd"/><path d="m2 33.0909h6" stroke="#000" stroke-linecap="round" stroke-linejoin="round" stroke-width="4"/><path clip-rule="evenodd" d="m40 33.0909h6z" fill="#2f88ff" fill-rule="evenodd"/><path d="m40 33.0909h6" stroke="#000" stroke-linecap="round" stroke-linejoin="round" stroke-width="4"/></svg>