<svg viewBox="0 0 14 14" xmlns="http://www.w3.org/2000/svg"><path d="m11.90909086 3.18181822h-9.81818172c-.6 0-1.09090908.49090909-1.09090908 1.09090908v4.36363632h11.99999988v-4.36363632c0-.6-.49090909-1.09090908-1.09090908-1.09090908z" fill="#4caf50"/><path d="m1.00000006 8.63636362v1.09090908c0 .6.49090909 1.09090908 1.09090908 1.09090908h4.63636359v-1.36363635c0-.16363636.1090909-.27272727.27272727-.27272727.16363636 0 .27272727.1090909.27272727.27272727v1.36363635h4.63636359c.6 0 1.09090908-.49090909 1.09090908-1.09090908v-1.09090908z" fill="#37474f"/><path d="m2.36363641 9.18181816h.54545454v1.63636362h-.54545454zm1.09090908 0h.54545454v1.63636362h-.54545454zm1.09090908 0h.54545454v1.63636362h-.54545454zm1.09090908 0h.54545454v1.63636362h-.54545454zm2.18181816 0h.54545454v1.63636362h-.54545454zm1.09090908 0h.54545454v1.63636362h-.54545454zm1.09090908 0h.54545454v1.63636362h-.54545454zm1.09090908 0h.54545454v1.63636362h-.54545454z" fill="#ff9800"/><path d="m5.90909092 4.81818184h2.18181816v2.7272727h-2.18181816zm3.27272724 0h2.18181816v2.7272727h-2.18181816zm-6.54545448 0h2.18181816v2.7272727h-2.18181816z" fill="#37474f"/></svg>